<svg width="20" height="22" viewBox="0 0 20 22" fill="none" xmlns="http://www.w3.org/2000/svg">
<path d="M2.22222 22H17.7778C19.0033 22 20 21.0133 20 19.8V7.7C20 7.40826 19.8829 7.12847 19.6746 6.92218C19.4662 6.71589 19.1836 6.6 18.8889 6.6H15.5556V5.5C15.5556 2.4673 13.0633 0 10 0C6.93667 0 4.44444 2.4673 4.44444 5.5V6.6H1.11111C0.816426 6.6 0.533811 6.71589 0.325437 6.92218C0.117063 7.12847 0 7.40826 0 7.7V19.8C0 21.0133 0.996667 22 2.22222 22ZM6.66667 5.5C6.66667 3.6806 8.16222 2.2 10 2.2C11.8378 2.2 13.3333 3.6806 13.3333 5.5V6.6H6.66667V5.5ZM2.22222 8.8H4.44444V11H6.66667V8.8H13.3333V11H15.5556V8.8H17.7778L17.78 19.8H2.22222V8.8Z" fill="black"/>
</svg>
